<svg width="1440" height="1024" viewBox="0 0 1440 1024" fill="none" xmlns="http://www.w3.org/2000/svg">
<g clip-path="url(#clip0_170_29853)">
<rect width="1440" height="1024" fill="url(#paint0_linear_170_29853)"/>
<path d="M1247.49 1049.23C1241.81 1053.99 1241.81 1053.99 1235.61 1059.14C1232.62 1058.9 1232.62 1058.9 1229.03 1059C1225.83 1058.45 1225.83 1058.45 1222.03 1058.27C1224.93 1052.68 1224.93 1052.68 1227.19 1047.43C1229.81 1041.7 1229.81 1041.7 1232.36 1035.87C1238.98 1030.52 1238.98 1030.52 1245.12 1025.61C1251.64 1020.12 1251.64 1020.12 1257.72 1015.03C1261.33 1015.66 1261.33 1015.66 1264.36 1016.63C1267.76 1016.97 1267.76 1016.97 1270.55 1017.74C1267.76 1023.28 1267.76 1023.28 1264.85 1028.77C1262.28 1033.68 1262.28 1033.68 1259.15 1039.07C1253.57 1043.94 1253.57 1043.94 1247.49 1049.23ZM1229.67 1073.52C1238.51 1066.14 1238.51 1066.14 1247.27 1058.61C1255.9 1050.98 1255.9 1050.98 1263.92 1043.65C1266.91 1040.87 1266.91 1040.87 1269.86 1038.05C1271.38 1035.77 1271.38 1035.77 1273.31 1032.9C1278.11 1025.37 1278.11 1025.37 1282.62 1017.65C1286.94 1009.83 1286.94 1009.83 1291.45 1001.32C1293 998.319 1293 998.319 1294.56 995.249C1293.17 994.957 1293.17 994.957 1291.72 994.666C1287.39 993.701 1287.39 993.701 1282.76 992.43C1277.37 991.411 1277.37 991.411 1272.17 989.612C1270.28 988.885 1270.28 988.885 1268.4 988.157C1264.95 991.12 1264.95 991.12 1261.5 994.137C1251.99 1002.01 1251.99 1002.01 1241.96 1010.17C1241.96 1010.17 1241.96 1010.17 1241.93 1010.17C1231.84 1018.18 1231.84 1018.18 1221.66 1026.05C1218.09 1028.72 1218.09 1028.72 1214.51 1031.45C1213.31 1034.76 1213.31 1034.76 1212.06 1038.1C1208.44 1047.38 1208.44 1047.38 1204.52 1056.52C1200.86 1065.12 1200.86 1065.12 1196.9 1073.52C1195.71 1076.19 1195.71 1076.19 1193.99 1079.25C1196.48 1079.16 1196.48 1079.16 1198.44 1079.45C1204.07 1079.92 1204.07 1079.92 1209.98 1079.69C1215.19 1079.54 1215.19 1079.54 1220.16 1079.05C1221.77 1078.87 1221.77 1078.87 1223.36 1078.62C1226.51 1076.09 1226.51 1076.09 1229.67 1073.52ZM845.049 907.899C835.806 903.295 835.806 903.295 826.843 898.571C826.859 888.767 826.859 888.767 827.082 878.805C827.175 868.788 827.175 868.788 827.442 858.694C836.738 853.586 836.738 853.586 846.101 848.387C855.544 843.187 855.544 843.187 865.081 837.894C874.39 842.751 874.39 842.751 883.488 847.659C883.488 847.659 883.488 847.659 883.513 847.659C892.636 852.514 892.636 852.514 901.786 857.238C901.387 867.293 901.387 867.293 901.028 877.244C900.708 887.06 900.708 887.06 900.188 896.931C890.931 902.025 890.931 902.025 881.876 907.025C881.876 907.075 881.876 907.075 881.876 907.075C872.365 912.168 872.365 912.168 863.069 917.223C854.265 912.512 854.266 912.516 845.049 907.899ZM796.742 924.61C810.993 931.753 810.993 931.753 824.765 938.845C838.75 945.752 838.75 945.752 852.561 952.552C857.063 954.935 857.063 954.935 862.004 957.21C866.692 954.682 866.692 954.682 871.713 952.063C885.844 944.534 885.844 944.534 900.069 936.861C900.069 936.902 900.069 936.902 900.069 936.902C914.053 929.227 914.054 929.227 928.212 921.409C933.233 918.644 933.233 918.644 938.24 915.826C938.333 910.864 938.333 910.864 938.706 905.664C939.385 890.898 939.385 890.898 940.118 875.895C940.865 860.64 940.865 860.64 941.517 845.239C941.6 839.934 941.6 839.934 941.809 834.496C936.922 831.969 936.922 831.969 932.1 829.402C918.315 821.913 918.315 821.913 904.131 814.438C890.147 806.711 890.147 806.711 875.79 799.037C870.821 796.312 870.821 796.312 865.986 793.547C860.699 796.511 860.699 796.511 855.611 799.369C841.188 807.492 841.187 807.492 826.443 815.642C811.846 823.766 811.846 823.766 797.249 831.731C792.214 834.549 792.214 834.549 787.1 837.313C787.1 842.753 787.1 842.752 787.075 848.203C786.928 863.75 786.928 863.75 787.009 879.097C787.009 894.26 787.009 894.26 786.926 909.211C786.78 914.37 786.78 914.37 786.633 919.517C791.654 922.043 791.654 922.042 796.742 924.61ZM827.082 269.25C826.856 259.34 826.856 259.34 826.843 249.469C835.806 244.76 835.806 244.76 845.049 240.142C854.266 235.484 854.266 235.484 863.07 230.814C872.366 235.868 872.366 235.868 881.877 240.975C881.877 241.025 881.876 241.025 881.851 241.025C890.935 246.027 890.935 246.027 900.191 251.121C900.711 260.99 900.711 260.99 901.031 270.795C901.377 280.757 901.377 280.757 901.79 290.813C892.612 295.523 892.613 295.523 883.491 300.391C874.38 305.287 874.38 305.287 865.083 310.156C855.547 304.851 855.547 304.851 846.104 299.651C836.741 294.464 836.741 294.464 827.444 289.357C827.178 279.249 827.175 279.252 827.082 269.25ZM786.926 238.831C787.009 253.796 787.009 253.796 787.009 268.958C786.927 284.306 786.927 284.306 787.075 299.852C787.1 305.29 787.1 305.289 787.1 310.741C792.214 313.506 792.214 313.506 797.249 316.324C811.82 324.342 811.82 324.342 826.443 332.399C841.161 340.563 841.161 340.563 855.838 348.78C860.699 351.545 860.699 351.545 865.96 354.508C870.821 351.743 870.821 351.743 875.79 349.017C890.147 341.343 890.147 341.343 904.105 333.617C904.129 333.617 904.129 333.617 904.371 333.71C918.289 326.141 918.289 326.141 932.074 318.652C936.922 316.033 936.922 316.033 941.809 313.56C941.571 308.108 941.571 308.108 941.517 302.816C940.865 287.414 940.865 287.414 940.118 272.16C939.385 257.156 939.385 257.156 938.706 242.338C938.333 237.177 938.333 237.177 938.213 232.177C933.233 229.411 933.233 229.411 928.197 226.593C914.426 218.959 914.426 218.959 900.069 211.139C885.818 203.518 885.818 203.518 871.713 195.99C866.666 193.357 866.666 193.357 862.004 190.831C857.063 193.119 857.063 193.119 852.535 195.5C838.75 202.301 838.75 202.301 824.765 209.195C810.967 216.3 810.966 216.3 796.742 223.431C791.654 225.958 791.654 225.958 786.633 228.591C786.78 233.685 786.78 233.685 786.926 238.831ZM1229.52 89.4954C1232.62 89.1119 1232.62 89.112 1235.61 88.9133C1241.79 94.0605 1241.79 94.0605 1247.46 98.8235C1253.57 104.063 1253.57 104.063 1259.15 108.971C1262.28 114.316 1262.28 114.316 1265.29 119.768C1267.76 124.769 1267.76 124.769 1270.55 130.3C1267.76 131.027 1267.76 131.027 1264.36 131.424C1261.33 132.39 1261.33 132.39 1257.73 132.972C1251.67 127.918 1251.67 127.918 1245.12 122.427C1238.98 117.479 1238.98 117.479 1232.33 112.133C1229.81 106.351 1229.81 106.351 1227.19 100.623C1224.9 95.37 1224.9 95.3699 1222.03 89.7337C1225.83 89.5481 1225.83 89.5481 1229.52 89.4954ZM1220.16 68.9485C1215.19 68.4586 1215.19 68.4587 1209.98 68.3135C1204.57 68.5114 1204.57 68.5115 1198.43 68.5511C1196.48 68.8422 1196.48 68.8421 1193.96 68.8025C1195.7 71.8057 1195.7 71.8058 1196.88 74.532C1200.86 82.9332 1200.86 82.9331 1204.52 91.4803C1208.44 100.662 1208.44 100.662 1212.03 109.951C1213.28 113.245 1213.28 113.245 1214.51 116.605C1218.08 119.278 1218.08 119.278 1221.66 121.99C1231.84 129.863 1231.84 129.863 1241.93 137.881C1251.96 146.044 1251.96 146.044 1261.47 153.916C1264.95 156.88 1264.95 156.88 1268.4 159.884C1270.28 159.116 1270.28 159.116 1272.17 158.389C1277.81 157.118 1277.81 157.118 1282.76 155.57C1287.39 154.353 1287.39 154.353 1291.72 153.373C1293.17 153.044 1293.17 153.044 1294.54 152.791C1293 149.736 1293 149.736 1291.45 146.679C1286.94 138.224 1286.94 138.224 1282.62 130.352C1278.11 122.678 1278.11 122.678 1273.31 115.097C1271.38 112.279 1271.38 112.28 1269.86 109.99C1266.91 107.185 1266.91 107.185 1263.92 104.367C1255.9 97.077 1255.9 97.0769 1247.27 89.403C1238.51 81.9147 1238.51 81.9148 1229.67 74.532C1226.54 71.9518 1226.54 71.9517 1223.35 69.3847C1221.77 69.1332 1221.77 69.1332 1220.16 68.9485ZM1272.7 233.248C1280.89 229.12 1280.89 229.12 1288.7 225.337C1299.38 234.651 1299.38 234.651 1310.23 244.812C1310.26 244.812 1310.26 244.812 1310.26 244.762C1320.31 254.142 1320.31 254.142 1330.55 264.343C1333.8 277.706 1333.8 277.706 1337.03 291.599C1340.24 306.073 1340.24 306.073 1343.17 320.454C1336.15 325.602 1336.15 325.602 1328.4 330.312C1328.37 330.361 1328.37 330.361 1328.37 330.361C1320.33 335.799 1320.33 335.8 1312.1 341.978C1300.75 331.777 1300.75 331.777 1289.25 321.96C1289.25 321.96 1289.25 321.96 1289.2 322.009C1277.64 312.536 1277.64 312.535 1265.44 302.468C1263.02 287.027 1263.02 287.027 1260.24 271.481C1257.69 256.755 1257.69 256.755 1254.75 241.936C1263.73 237.173 1263.73 237.173 1272.32 232.755C1272.68 233.244 1272.67 233.248 1272.7 233.248ZM1296.91 500.496C1311.68 489.131 1311.68 489.131 1325.61 477.912C1340.21 490.97 1340.21 490.971 1354.02 503.606C1354.02 503.606 1354.02 503.606 1354.05 503.606C1367.01 515.752 1367.01 515.752 1379.19 527.898C1379.78 550.773 1379.78 550.773 1379.97 574.39C1379.78 597.266 1379.78 597.266 1379.19 620.155C1367.01 632.301 1367.01 632.301 1354.05 644.448C1354.05 644.448 1354.05 644.448 1354.02 644.448C1340.21 657.069 1340.21 657.069 1325.64 670.102C1311.68 658.869 1311.68 658.869 1296.91 647.504C1296.89 647.504 1296.89 647.504 1296.86 647.504C1281.28 636.085 1281.28 636.085 1265.03 624.231C1265.47 599.211 1265.47 599.211 1265.62 574.298C1265.47 548.789 1265.47 548.789 1265.03 523.822C1281.28 511.914 1281.28 511.914 1296.86 500.496C1296.89 500.496 1296.89 500.496 1296.91 500.496ZM1028.79 401.384C1028.07 382.729 1028.07 382.729 1027.37 364.365C1042.51 355.87 1042.51 355.871 1057.38 347.509C1072.21 339.544 1072.21 339.544 1086.74 331.632C1102.17 341.489 1102.17 341.489 1117.34 351.254C1117.35 351.254 1117.35 351.254 1117.38 351.254C1132.5 361.256 1132.49 361.256 1147.33 371.166C1148.46 389.001 1148.46 389.001 1149.56 407.167C1150.46 425.293 1150.46 425.293 1151.34 443.71C1137.29 452.204 1137.29 452.204 1122.96 460.857C1122.93 460.857 1122.93 460.857 1122.91 460.857C1108.24 469.643 1108.24 469.643 1093.37 478.784C1077.72 468.769 1077.72 468.768 1061.95 458.912C1045.98 448.949 1045.98 448.949 1030 439.185C1029.48 420.331 1029.47 420.332 1028.79 401.384ZM1057.4 800.531C1042.53 792.183 1042.53 792.183 1027.4 783.674C1028.07 765.311 1028.07 765.31 1028.79 746.616C1029.47 727.71 1029.47 727.71 1029.99 708.867C1046 699.104 1046 699.104 1061.97 689.088C1077.74 679.232 1077.74 679.231 1093.39 669.216C1108.24 678.398 1108.24 678.398 1122.9 687.143C1122.93 687.192 1122.93 687.192 1122.95 687.192C1137.3 695.846 1137.3 695.846 1151.22 704.684C1150.46 722.757 1150.46 722.757 1149.58 740.87C1148.46 759.049 1148.46 759.049 1147.33 776.872C1132.49 786.78 1132.49 786.78 1117.37 796.797C1117.37 796.797 1117.37 796.797 1117.35 796.747C1102.17 806.511 1102.17 806.511 1086.74 816.381C1072.24 808.509 1072.24 808.509 1057.4 800.531ZM1310.23 903.242C1299.38 913.39 1299.38 913.39 1288.7 922.717C1280.89 918.933 1280.89 918.933 1272.7 914.806C1272.67 914.806 1272.67 914.806 1272.34 915.282C1263.72 910.824 1263.72 910.824 1254.75 906.06C1257.72 891.294 1257.72 891.294 1260.26 876.568C1263.04 860.968 1263.04 860.968 1265.47 845.528C1277.64 835.474 1277.64 835.474 1289.23 826.04C1300.72 816.236 1300.72 816.236 1312.1 806.075C1320.38 812.2 1320.38 812.2 1328.4 817.692C1336.15 822.454 1336.15 822.454 1343.17 827.6C1340.26 841.983 1340.26 841.983 1337.03 856.404C1333.81 870.297 1333.81 870.297 1330.56 883.66C1320.33 893.86 1320.33 893.86 1310.26 903.242C1310.26 903.242 1310.26 903.242 1310.23 903.242ZM1448.68 692.25C1446.6 704.303 1446.6 704.303 1444.16 717.031C1441.5 725.472 1441.5 725.473 1438.44 733.834C1434.84 742.725 1434.84 742.725 1430.83 751.524C1429.13 747.529 1429.13 747.529 1427.06 742.817C1427.06 742.817 1427.06 742.817 1427.05 742.817C1424.28 738.69 1424.28 738.69 1421.15 733.781C1423.32 719.995 1423.32 719.995 1425.4 705.561C1427.21 691.125 1427.21 691.125 1428.83 676.704C1433.91 668.778 1433.91 668.778 1438.67 660.033C1442.96 651.83 1442.96 651.83 1446.71 644.156C1448.9 649.833 1448.9 649.833 1450.59 655.469C1451.77 661.065 1451.77 661.065 1452.45 665.961C1450.63 679.469 1450.64 679.469 1448.68 692.25ZM1438.44 414.166C1441.5 422.568 1441.5 422.568 1444.16 431.022C1446.6 443.75 1446.6 443.75 1448.68 455.802C1450.64 468.584 1450.64 468.584 1452.45 482.079C1451.77 486.948 1451.77 486.948 1450.6 492.571C1448.91 498.207 1448.91 498.207 1446.71 503.843C1442.97 496.17 1442.97 496.17 1438.68 487.966C1433.91 479.221 1433.91 479.221 1428.83 471.296C1427.21 456.874 1427.21 456.874 1425.4 442.439C1423.32 428.019 1423.32 428.019 1421.15 414.258C1424.28 409.363 1424.28 409.363 1427.05 405.183C1427.05 405.183 1427.05 405.183 1427.07 405.183C1429.13 400.472 1429.13 400.472 1430.83 396.53C1434.84 405.275 1434.84 405.275 1438.44 414.166ZM982.605 32.1666C985.429 28.0922 985.429 28.0922 988.253 24.1093C995.51 25.0749 995.51 25.0749 1003.38 26.3448C1010.69 27.4564 1010.69 27.4564 1018.03 28.6744C1022.39 33.5297 1022.39 33.5297 1027.2 38.7289C1031.94 43.9289 1031.94 43.9289 1036.61 49.1685C1033.9 53.2569 1033.9 53.2569 1031.17 57.4369C1031.17 57.4781 1031.16 57.4781 1031.14 57.4781C1028.37 61.7513 1028.37 61.7513 1025.56 66.1308C1018.39 65.2576 1018.39 65.2576 1010.76 64.2392C1002.65 63.022 1002.65 63.0219 995.1 62.0951C990.664 56.6972 990.664 56.6972 985.603 51.1146C985.603 51.1641 985.603 51.1641 985.603 51.1641C981.008 45.8189 981.008 45.8189 976.32 40.5273C979.742 36.3985 979.741 36.4001 982.605 32.1666ZM1087.92 174.08C1092.51 165.718 1092.51 165.718 1096.93 157.463C1107.99 158.864 1107.99 158.864 1119.53 160.915C1130.3 162.463 1130.3 162.463 1141.07 164.262C1148.29 174.319 1148.29 174.319 1155.33 184.32C1162.22 194.39 1162.22 194.39 1169.36 204.776C1165.64 213.376 1165.64 213.376 1161.66 221.975C1157.45 230.668 1157.45 230.668 1153.32 239.811C1142.12 238.395 1142.12 238.395 1130.66 236.886C1118.92 235.338 1118.92 235.338 1107.28 234.121C1100.26 223.484 1100.26 223.484 1093.07 212.793C1093.09 212.793 1093.09 212.793 1093.09 212.744C1085.73 202.067 1085.73 202.067 1078.55 191.574C1083.5 182.922 1083.51 182.918 1087.92 174.08ZM1065.86 138.423C1061.09 146.48 1061.09 146.48 1056.56 155.028C1056.54 155.028 1056.54 155.028 1056.54 155.078C1049.97 167.462 1049.97 167.462 1042.67 179.899C1040.68 183.696 1040.68 183.696 1038.64 187.48C1041.82 191.952 1041.82 191.952 1044.61 196.133C1054.81 211.044 1054.81 211.044 1064.93 226.154C1075.01 241.409 1075.01 241.409 1085.32 257.153C1088.28 261.718 1088.28 261.719 1091.2 266.336C1096.02 266.574 1096.02 266.574 1101.17 267.248C1118.11 269.009 1118.11 269.009 1134.64 270.702C1151.02 272.647 1151.02 272.647 1166.87 274.486C1171.29 274.883 1171.29 274.883 1176.02 275.703C1177.81 271.866 1177.81 271.866 1179.56 268.029C1185.09 254.772 1185.09 254.772 1190.68 242.335C1195.8 229.898 1195.8 229.898 1200.74 217.99C1202.18 214.643 1202.18 214.643 1203.18 210.846C1200.71 207.009 1200.71 207.009 1197.88 202.788C1187.87 188.261 1187.87 188.261 1178.42 174.554C1168.71 160.861 1168.71 160.861 1158.71 147.206C1155.5 143.025 1155.5 143.025 1152.69 139.188C1148.7 138.566 1148.7 138.566 1144.26 137.587C1129.07 134.477 1129.07 134.477 1113.98 131.858C1102.88 129.914 1102.88 129.914 1091.85 128.206C1073.97 105.278 1073.97 105.278 1056.33 83.3274C1058.94 78.8027 1058.94 78.8026 1061.51 74.3835C1065.54 67.3446 1065.54 67.3446 1069.46 60.5308C1070.9 58.0174 1070.9 58.0174 1072.36 55.49C1069.41 52.1297 1069.41 52.1297 1066.42 48.8354C1059.19 40.6189 1059.19 40.6188 1051.19 32.2564C1043.58 24.2519 1043.58 24.2519 1036.3 16.5649C1032.99 13.4553 1032.99 13.4553 1030.21 10.5452C1025.81 9.72475 1025.81 9.72469 1021.43 8.9446C1009.58 6.76102 1009.58 6.76108 998.323 5.01455C986.537 3.16247 986.537 3.16238 974.243 1.27072C969.915 0.728122 969.914 0.728134 965 0C962.989 2.23553 962.989 2.23553 961.551 4.72339C956.41 10.7439 956.409 10.744 951.841 17.3063C946.66 23.9609 946.66 23.9609 941.466 30.9074C939.469 33.6196 939.469 33.6196 937.444 36.4381C939.975 39.5997 939.975 39.5997 943.038 42.9476C950.736 51.7454 950.736 51.7454 958.128 60.6373C958.128 60.6867 958.128 60.6867 958.103 60.6867C965.775 69.8696 965.775 69.8696 973.66 79.29C976.27 82.7822 976.27 82.7823 979.321 86.5269C984.314 87.0563 984.314 87.0562 989.309 87.5988C1002.21 89.0542 1002.21 89.0542 1014.73 90.456C1022.7 91.528 1022.7 91.5281 1030.26 92.4542C1048.02 114.999 1048.01 115.004 1065.86 138.423ZM657.11 590.28C652.448 582.118 652.448 582.117 647.773 574.007C652.448 566.028 652.448 566.029 657.137 557.772C661.865 549.569 661.865 549.569 666.526 541.446C675.969 541.405 675.969 541.405 685.412 541.353C685.387 541.446 685.387 541.446 685.412 541.446C694.842 541.495 694.842 541.495 704.351 541.405C709.053 549.568 709.053 549.567 713.768 557.625C718.508 565.841 718.509 565.841 723.264 574.005C718.509 582.116 718.508 582.116 713.768 590.318C713.743 590.318 713.743 590.318 713.768 590.425C709.079 598.535 709.079 598.535 704.351 606.592C694.895 606.592 694.895 606.592 685.386 606.551C675.943 606.501 675.943 606.501 666.526 606.446C661.837 598.335 661.838 598.335 657.137 590.277C657.112 590.277 657.11 590.28 657.11 590.28ZM880.411 598.921C873.245 586.537 873.245 586.536 866.053 574.046C873.245 561.464 873.245 561.464 880.411 549.08C880.411 548.987 880.411 548.987 880.411 548.987C887.51 536.59 887.51 536.59 894.596 524.258C908.9 524.258 908.9 524.258 923.124 524.352C937.335 524.444 937.334 524.444 951.466 524.55C958.538 536.934 958.538 536.934 965.557 549.225C965.532 549.225 965.531 549.225 965.531 549.225C972.55 561.662 972.551 561.662 979.49 574.152C972.551 586.391 972.55 586.391 965.531 598.828C965.556 598.828 965.557 598.828 965.557 598.828C958.511 611.264 958.511 611.264 951.466 623.503C937.334 623.609 937.334 623.609 923.15 623.702C908.899 623.751 908.899 623.751 894.622 623.751C887.51 611.46 887.51 611.46 880.411 599.022C880.411 599.022 880.411 599.025 880.411 598.921ZM830.305 594.699C837.524 607.229 837.524 607.229 844.717 619.666C844.758 619.573 844.758 619.573 844.758 619.608C854.867 637.153 854.867 637.153 864.936 654.591C867.892 659.738 867.893 659.738 870.903 664.844C876.723 664.844 876.723 664.844 882.61 664.795C902.761 664.65 902.761 664.65 922.793 664.558C942.771 664.213 942.771 664.213 962.482 664.12C968.196 664.028 968.196 664.028 973.949 663.776C976.827 658.868 976.826 658.868 979.783 653.668C989.758 636.23 989.758 636.23 999.615 618.884C999.615 618.884 999.615 618.884 999.664 618.884C1009.43 601.644 1009.43 601.644 1019.12 584.154C1021.92 579.1 1021.92 579.1 1024.73 574.151C1021.92 568.952 1021.92 568.952 1019.12 563.898C1009.4 546.407 1009.4 546.407 999.637 529.153C999.612 529.153 999.613 529.153 999.613 529.153C989.743 511.821 989.744 511.821 979.781 494.37C976.904 489.368 976.904 489.368 973.947 484.221C968.166 484.023 968.166 484.023 962.572 484.077C942.768 483.837 942.769 483.837 922.856 483.639C902.759 483.388 902.759 483.388 882.594 483.243C876.72 483.202 876.721 483.202 870.874 483.202C867.864 488.296 867.864 488.296 864.934 493.456C854.905 510.933 854.905 510.934 844.755 528.425C844.731 528.425 844.731 528.425 844.731 528.425C837.525 540.862 837.525 540.862 830.306 553.299C794.706 553.348 794.706 553.348 759.079 553.348C754.364 545.238 754.364 545.237 749.622 537.127C741.897 523.817 741.897 523.817 734.159 510.494C731.137 505.4 731.137 505.4 728.179 500.148C722.226 500.197 722.226 500.197 716.285 500.197C700.916 500.246 700.916 500.246 685.506 500.342C685.531 500.392 685.531 500.392 685.556 500.392C670.199 500.485 670.199 500.485 654.91 500.63C648.996 500.722 648.996 500.722 643.15 500.776C640.22 505.83 640.22 505.83 637.21 510.976C629.578 524.194 629.578 524.194 621.999 537.359C621.975 537.359 621.975 537.359 621.95 537.359C614.345 550.669 614.345 550.669 606.821 563.887C603.904 568.941 603.904 568.941 601 573.995C603.904 578.89 603.904 578.89 606.821 584.144C614.372 597.308 614.372 597.308 621.924 610.472C621.949 610.671 621.949 610.671 621.949 610.671C629.607 623.928 629.607 623.928 637.238 637.146C640.169 642.252 640.169 642.252 643.178 647.4C649.025 647.441 649.025 647.441 654.94 647.545C670.216 647.637 670.216 647.637 685.479 647.637C700.915 647.783 700.915 647.783 716.284 647.837C722.225 647.837 722.225 647.837 728.178 647.878C731.202 642.692 731.202 642.692 734.158 637.492C741.87 624.275 741.87 624.275 749.621 611.017C754.363 602.853 754.363 602.853 759.104 594.69C794.759 594.69 794.759 594.69 830.305 594.69V594.699ZM1003.38 1121.67C995.537 1122.93 995.538 1122.93 988.253 1123.94C985.429 1119.96 985.429 1119.96 982.605 1115.89C979.741 1111.65 979.741 1111.65 976.319 1107.52C981.006 1102.18 981.006 1102.18 985.602 1096.89C990.662 1091.3 990.662 1091.3 995.098 1085.96C1002.65 1085.03 1002.65 1085.03 1010.76 1083.82C1018.39 1082.74 1018.39 1082.74 1025.56 1081.87C1028.39 1086.29 1028.39 1086.29 1031.17 1090.58C1033.9 1094.8 1033.9 1094.8 1036.61 1098.87C1031.94 1104.12 1031.94 1104.12 1027.2 1109.32C1027.2 1109.32 1027.2 1109.32 1027.22 1109.38C1022.4 1114.53 1022.4 1114.53 1018.03 1119.38C1010.69 1120.55 1010.69 1120.54 1003.38 1121.67ZM1119.53 987.138C1107.99 989.136 1107.99 989.135 1096.55 990.935C1092.54 982.336 1092.54 982.336 1087.92 973.973C1083.51 965.082 1083.51 965.082 1078.53 956.442C1085.72 945.937 1085.72 945.937 1093.1 935.207C1100.26 924.569 1100.26 924.569 1107.28 913.931C1118.95 912.661 1118.95 912.661 1130.68 911.153C1142.15 909.658 1142.15 909.658 1153.35 908.243C1157.45 917.332 1157.45 917.332 1161.69 926.025C1165.64 934.678 1165.64 934.678 1169.39 943.264C1162.22 953.664 1162.22 953.664 1155.33 963.719C1155.35 963.719 1155.35 963.719 1155.38 963.719C1148.32 973.775 1148.32 973.775 1141.51 983.393C1130.3 985.591 1130.3 985.591 1119.53 987.138ZM1091.87 1019.83C1102.9 1018.14 1102.9 1018.14 1113.98 1016.19C1129.1 1013.57 1129.1 1013.57 1144.25 1010.46C1148.7 1009.48 1148.7 1009.48 1152.68 1008.81C1155.48 1004.97 1155.48 1004.97 1158.68 1000.79C1168.68 987.138 1168.68 987.138 1178.42 973.444C1178.42 973.485 1178.42 973.485 1178.42 973.485C1187.87 959.791 1187.87 959.791 1197.87 945.211C1200.37 941.427 1200.37 941.427 1203.18 937.194C1201.82 933.846 1201.82 933.846 1200.74 930.062C1195.8 918.102 1195.8 918.102 1190.71 905.717C1185.09 893.28 1185.09 893.28 1179.56 879.97C1177.8 876.186 1177.8 876.187 1176.02 872.35C1171.29 873.117 1171.29 873.116 1166.9 873.513C1151.02 875.353 1151.02 875.353 1134.66 877.35C1118.14 879.045 1118.14 879.045 1101.17 880.751C1096.01 881.425 1096.01 881.425 1091.19 881.716C1088.28 886.281 1088.28 886.281 1085.35 890.898C1075.02 906.644 1075.02 906.644 1064.98 921.899C1054.86 937.008 1054.86 937.008 1044.63 951.972C1041.47 956.391 1041.47 956.391 1038.66 960.572C1040.7 964.355 1040.7 964.355 1042.7 968.14C1049.98 980.578 1049.98 980.578 1056.54 992.973C1056.54 992.973 1056.54 992.973 1056.56 993.014C1061.09 1001.52 1061.09 1001.52 1065.86 1009.59C1048.01 1033.05 1048.01 1033.05 1030.26 1055.6C1022.69 1056.52 1022.69 1056.52 1014.73 1057.58C1002.21 1059 1002.21 1059 989.315 1060.45C984.307 1060.98 984.307 1060.98 979.313 1061.52C976.262 1065.22 976.262 1065.22 973.653 1068.76C965.767 1078.18 965.767 1078.18 958.123 1087.36C950.731 1096.31 950.731 1096.31 943.033 1105.05C939.996 1108.45 939.996 1108.45 937.438 1111.62C939.464 1114.38 939.463 1114.38 941.488 1117.15C946.655 1124.09 946.655 1124.09 951.837 1130.75C956.405 1137.26 956.405 1137.26 961.572 1143.33C963.011 1145.82 963.011 1145.82 965.008 1148C969.91 1147.31 969.91 1147.31 974.238 1146.73C985.972 1145.08 985.972 1145.08 998.318 1143.04C1009.57 1141.29 1009.57 1141.29 1021.43 1139.11C1025.81 1138.28 1025.81 1138.28 1030.2 1137.45C1032.97 1134.58 1032.97 1134.58 1036.29 1131.44C1043.55 1123.8 1043.55 1123.8 1051.18 1115.78C1051.18 1115.78 1051.18 1115.78 1051.21 1115.78C1059.18 1107.38 1059.18 1107.38 1066.41 1099.18C1069.4 1095.87 1069.4 1095.87 1072.36 1092.56C1070.92 1090.04 1070.92 1090.04 1069.45 1087.47C1065.54 1080.71 1065.54 1080.71 1061.5 1073.67C1058.93 1069.25 1058.93 1069.25 1056.35 1064.73C1073.99 1042.81 1074 1042.81 1091.87 1019.83ZM1390.34 870.984C1386.05 879.478 1386.05 879.478 1381.66 887.934C1378.7 891.77 1378.7 891.77 1375.79 894.839C1372.36 898.426 1372.36 898.426 1368.7 901.825C1369.49 896.824 1369.49 896.824 1370.36 891.189C1370.98 885.459 1370.98 885.459 1371.68 879.043C1376.36 870.152 1376.36 870.152 1381.25 860.638C1385.75 851.642 1385.75 851.642 1390.12 842.658C1394.01 839.932 1394.01 839.932 1397.66 837.074C1401.05 834.149 1401.05 834.149 1404.21 831.041C1403.01 837.114 1403.01 837.114 1401.56 843.187C1400.2 848.493 1400.2 848.493 1398.57 853.784C1394.52 862.385 1394.53 862.385 1390.34 870.984ZM1375.79 253.161C1378.68 256.269 1378.68 256.269 1381.66 260.067C1386.05 268.561 1386.05 268.561 1390.34 277.068C1394.53 285.616 1394.52 285.616 1398.57 294.268C1400.2 299.508 1400.2 299.508 1401.56 304.853C1403.01 310.886 1403.01 310.886 1404.21 316.999C1401.05 313.89 1401.05 313.89 1397.66 310.926C1394.01 308.108 1394.01 308.108 1390.12 305.395C1385.72 296.359 1385.72 296.359 1381.25 287.414C1376.36 277.849 1376.36 277.849 1371.68 269.012C1370.98 262.594 1370.98 262.594 1370.36 256.865C1369.49 251.176 1369.49 251.176 1368.7 246.214C1372.35 249.615 1372.35 249.615 1375.79 253.161ZM1406.11 308.836C1394.94 282.559 1382.13 257.156 1367.85 232.666C1369.41 235.683 1369.41 235.683 1370.95 238.739C1368.17 234.849 1368.17 234.849 1365.16 231.065C1360.51 225.919 1360.51 225.919 1355.45 221.01C1353.52 219.012 1353.52 219.012 1351.88 217.649C1352.37 219.74 1352.37 219.74 1352.78 221.829C1353.86 229.067 1353.86 229.067 1354.81 237.085C1355.27 245.301 1355.27 245.301 1355.25 253.65C1355.4 256.574 1355.4 256.574 1355.21 258.942C1357.43 262.938 1357.43 262.938 1359.67 267.013C1366.84 280.323 1366.84 280.323 1373.56 293.197C1380.37 306.758 1380.37 306.758 1386.95 320.452C1388.65 324.051 1388.65 324.051 1390.61 328.232C1392.34 328.96 1392.34 328.96 1394.32 330.309C1400.17 333.763 1400.17 333.763 1405.58 337.454C1410.2 340.762 1410.2 340.762 1414.3 344.307C1415.38 345.326 1415.38 345.326 1416.43 346.397C1415.97 343.725 1415.97 343.725 1415.45 340.999C1413.81 332.942 1413.81 332.942 1411.47 324.342C1408.95 316.522 1408.95 316.523 1406.02 308.889C1406.06 308.889 1406.06 308.886 1406.11 308.836ZM1458.66 616.172C1459.52 602.227 1460 588.19 1460 574.007C1460 559.863 1459.52 545.773 1458.66 531.827C1458.93 536.986 1458.97 537.953 1459.17 544.316C1459.23 555.245 1459.23 555.245 1458.95 566.809C1458.8 570.209 1458.8 570.209 1458.64 574.443C1458.8 577.844 1458.8 577.843 1458.95 581.243C1459.23 592.808 1459.23 592.808 1459.17 603.684C1458.97 610.047 1458.93 611.026 1458.66 616.172ZM1440.34 736.414C1446.16 712.744 1450.76 688.559 1454.03 663.976C1454.5 660.033 1454.53 659.994 1455.11 655.323C1455.51 651.923 1455.51 651.923 1455.95 647.848C1456.04 646.538 1456.04 646.538 1456.11 645.121C1455.96 637.593 1455.96 637.593 1454.87 630.701C1452.97 623.067 1452.97 623.067 1450.28 614.758C1449.52 612.72 1449.52 612.72 1448.76 610.629C1447.71 613.248 1447.71 613.248 1446.68 615.194C1441.57 625.541 1441.57 625.541 1435.72 635.702C1430.69 643.812 1430.69 643.812 1425.24 651.737C1412.72 636.138 1412.72 636.138 1397.55 619.031C1398.13 596.737 1398.13 596.737 1398.36 574.39C1398.13 551.316 1398.13 551.316 1397.55 528.969C1412.72 511.914 1412.72 511.914 1425.24 496.275C1430.69 504.241 1430.69 504.241 1435.72 512.298C1441.57 522.459 1441.57 522.459 1446.68 532.806C1447.71 534.751 1447.71 534.751 1448.76 537.371C1449.52 535.333 1449.52 535.333 1450.28 533.243C1452.97 524.987 1452.97 524.987 1454.87 517.352C1455.96 510.407 1455.96 510.407 1456.11 502.878C1456.05 501.516 1456.05 501.515 1455.95 500.152C1455.51 496.131 1455.51 496.131 1455.11 492.73C1454.61 488.694 1454.61 488.642 1454.03 484.024C1450.76 459.441 1446.16 435.295 1440.34 411.639C1437.92 403.091 1437.92 403.091 1435.21 394.637C1430.93 383.127 1430.93 383.126 1426.01 371.801C1424.63 368.692 1424.63 368.692 1423.4 366.271C1422.99 367.09 1422.99 367.09 1422.55 367.964C1420.39 372.872 1420.39 372.873 1417.34 378.02C1413.54 384.053 1413.55 384.052 1408.66 389.583C1407.51 391.29 1407.51 391.29 1406.11 392.348C1406.94 396.926 1406.94 396.927 1407.72 401.438C1410.49 419.564 1410.49 419.564 1413.04 438.312C1414.84 453.183 1414.84 453.183 1416.38 468.041C1403.25 483.64 1403.25 483.64 1387.39 500.152C1375.63 487.622 1375.63 487.622 1363.03 475.041C1363.05 475.041 1363.05 475.041 1363.05 475.041C1349.72 462.51 1349.72 462.511 1335.61 449.492C1332.14 410.62 1332.14 410.62 1327.62 372.29C1335.81 366.126 1335.81 366.125 1343.69 360.634C1353 353.199 1353 353.199 1361.71 346.543C1363.64 345.088 1363.64 345.088 1365.51 343.672C1364.66 339.253 1364.66 339.253 1363.76 334.887C1359.89 316.47 1359.89 316.47 1355.83 298.688C1351.29 280.853 1351.29 280.853 1346.5 263.665C1345.39 259.828 1345.39 259.829 1344.24 255.978C1341.5 253.068 1341.5 253.068 1338.74 250.157C1326.28 237.231 1326.28 237.231 1313.53 224.74C1300.16 212.158 1300.16 212.158 1286.19 199.483C1282.79 196.467 1282.79 196.467 1279.81 193.993C1277.58 194.865 1277.58 194.865 1275.33 195.739C1265.33 200.211 1265.33 200.211 1254.3 204.776C1242.69 210.028 1242.69 210.028 1230.49 215.81C1227.61 217.319 1227.61 217.319 1224.35 218.43C1225.28 222.809 1225.28 222.809 1226.13 227.175C1229.98 246.849 1229.98 246.849 1233.14 266.285C1236.22 286.449 1236.22 286.449 1239.23 307.235C1240 312.289 1240 312.289 1240.52 316.907C1244.29 319.672 1244.29 319.672 1248.32 322.927C1264.68 335.8 1264.68 335.8 1280.4 348.435C1280.38 348.435 1280.38 348.435 1280.38 348.435C1292.29 358.398 1292.29 358.398 1303.63 367.766C1308.03 407.273 1308.03 407.273 1311.33 447.004C1296.97 457.497 1296.97 457.497 1281.84 468.293C1265.97 479.751 1265.97 479.751 1249.32 491.222C1218.05 468.623 1218.05 468.623 1184.99 445.204C1184.01 426.947 1184 426.947 1183.01 409.112C1181.54 386.09 1181.54 386.09 1179.82 363.346C1179.29 357.962 1179.29 357.962 1178.94 352.908C1174.7 350.036 1174.7 350.036 1170.22 346.782C1151.39 333.961 1151.39 333.96 1132.26 321.272C1132.29 321.231 1132.29 321.231 1132.29 321.231C1112.66 308.251 1112.66 308.252 1092.73 295.431C1088.26 292.666 1088.26 292.666 1083.78 289.887C1079.52 292.083 1079.52 292.083 1075.3 294.32C1056.26 303.978 1056.26 303.978 1037.31 314.47C1017.44 324.777 1017.44 324.777 997.582 335.705C992.693 338.141 992.694 338.141 988.073 340.813C988.219 346.197 988.219 346.197 988.512 351.742C989.337 375.742 989.337 375.742 990.19 400.179C990.936 424.854 990.935 424.854 991.468 449.635C991.518 455.258 991.517 455.258 991.669 461.001C996.676 464.004 996.676 464.004 1001.68 467.113C1022.94 479.947 1022.94 479.947 1043.89 492.675C1064.63 505.641 1064.63 505.641 1084.99 518.277C1089.67 521.293 1089.67 521.293 1094.26 524.112C1098.82 521.439 1098.82 521.439 1103.33 518.661C1122.6 506.514 1122.6 506.514 1141.48 494.858C1155.63 485.821 1155.63 485.821 1169.58 477.169C1203.16 500.151 1203.16 500.151 1235.08 522.696C1235.52 548.496 1235.52 548.496 1235.67 574.296C1235.51 599.991 1235.51 599.991 1235.08 625.354C1203.16 647.885 1203.16 647.886 1169.58 670.829C1155.63 662.227 1155.63 662.227 1141.48 653.191C1122.6 641.521 1122.6 641.521 1103.33 629.375C1098.82 626.61 1098.82 626.61 1094.29 623.938C1089.67 626.756 1089.67 626.756 1084.99 629.772C1064.63 642.408 1064.63 642.407 1043.89 655.375C1022.94 668.102 1022.94 668.102 1001.71 680.922C996.676 684.032 996.676 684.032 991.681 686.996C991.536 692.778 991.536 692.778 991.468 698.414C990.935 723.196 990.936 723.196 990.19 747.871C989.337 772.308 989.337 772.308 988.512 796.309C988.219 801.853 988.219 801.852 988.073 807.236C992.721 809.91 992.721 809.91 997.608 812.344C1017.47 823.273 1017.47 823.273 1037.31 833.567C1056.26 844.059 1056.26 844.059 1075.3 853.69C1079.55 855.913 1079.55 855.913 1083.49 858.441C1088.26 855.385 1088.26 855.385 1092.74 852.566C1112.66 839.744 1112.66 839.744 1132.31 826.819C1132.29 826.819 1132.29 826.819 1132.29 826.77C1151.39 814.094 1151.39 814.094 1170.22 801.221C1174.7 798.019 1174.7 798.019 1178.94 795.094C1179.32 790.093 1179.32 790.094 1179.82 784.696C1181.54 761.912 1181.54 761.911 1183.01 738.943C1184 721.108 1184.01 721.108 1184.99 702.797C1217.93 679.868 1217.93 679.868 1249.32 656.78C1265.97 668.305 1265.97 668.304 1281.84 679.723C1296.97 690.505 1296.97 690.505 1311.33 700.997C1307.88 741.312 1307.88 741.312 1303.63 780.236C1292.3 789.604 1292.3 789.604 1280.42 799.619C1264.68 812.201 1264.68 812.201 1248.32 825.075C1244.31 828.37 1244.31 828.369 1240.52 831.148C1240 835.766 1240 835.766 1239.22 840.807C1236.21 861.606 1236.21 861.606 1233.14 881.769C1229.66 901.682 1229.66 901.682 1226.16 920.88C1225.28 925.246 1225.28 925.246 1224.37 929.626C1227.62 930.684 1227.62 930.684 1230.49 932.245C1242.71 938.027 1242.71 938.027 1254.3 943.226C1264.97 948.32 1264.97 948.32 1275.33 952.263C1277.58 953.189 1277.58 953.189 1279.81 954.062C1282.79 951.575 1282.79 951.575 1286.19 948.572C1300.18 935.884 1300.18 935.883 1313.53 923.301C1326.29 910.825 1326.29 910.825 1338.74 897.897C1341.5 894.988 1341.5 894.988 1344.24 892.063C1345.39 888.226 1345.39 888.226 1346.49 884.389C1351.29 867.189 1351.29 867.189 1355.86 849.367C1359.92 831.532 1359.92 831.532 1363.75 813.168C1364.66 808.75 1364.66 808.749 1365.51 804.33C1363.63 802.967 1363.63 802.967 1361.7 801.511C1352.99 794.856 1352.99 794.857 1343.66 787.368C1335.79 781.877 1335.79 781.877 1327.62 775.764C1331.99 737.965 1331.99 737.965 1335.61 698.523C1349.74 685.544 1349.74 685.544 1363.05 673.014C1363.05 673.014 1363.05 673.014 1363.02 673.014C1375.62 660.432 1375.62 660.432 1387.38 647.85C1403.25 664.414 1403.25 664.414 1416.38 680.012C1414.83 694.871 1414.83 694.871 1413.04 709.69C1410.49 728.491 1410.49 728.491 1407.55 747.239C1406.94 751.128 1406.94 751.128 1406.11 755.653C1407.51 756.712 1407.51 756.712 1408.65 758.419C1413.34 764.638 1413.34 764.638 1417.34 770.035C1420.39 775.182 1420.39 775.182 1422.55 780.091C1422.98 780.964 1422.98 780.964 1423.4 781.785C1424.62 779.31 1424.62 779.31 1426.01 776.201C1430.92 764.929 1430.92 764.929 1435.21 753.418C1437.92 744.963 1437.92 744.962 1440.34 736.414ZM1367.88 915.334C1382.15 890.858 1394.94 865.442 1406.11 839.204C1406.06 839.163 1406.06 839.163 1405.99 839.111C1408.95 831.477 1408.95 831.478 1411.47 823.711C1413.81 815.111 1413.81 815.111 1415.45 807.053C1415.97 804.329 1415.97 804.329 1416.43 801.603C1415.38 802.674 1415.38 802.674 1414.3 803.746C1410.2 807.292 1410.2 807.292 1405.58 810.546C1400.17 814.291 1400.17 814.291 1394.33 817.692C1392.34 819.041 1392.34 819.042 1390.61 819.781C1388.65 824.002 1388.65 824.002 1386.95 827.548C1380.37 841.256 1380.37 841.256 1373.56 854.803C1366.86 867.677 1366.86 867.677 1359.67 881.04C1357.43 885.075 1357.43 885.075 1355.21 889.098C1355.4 891.479 1355.4 891.479 1355.25 894.403C1355.27 902.752 1355.27 902.752 1354.81 910.969C1353.86 918.933 1353.86 918.933 1352.79 926.171C1352.37 928.314 1352.37 928.314 1351.88 930.391C1353.52 928.988 1353.52 928.988 1355.1 927.573C1360.51 922.135 1360.51 922.135 1365.16 916.987C1368.17 913.204 1368.17 913.204 1370.95 909.262C1369.41 912.318 1369.41 912.318 1367.88 915.334Z" fill="url(#paint1_linear_170_29853)" fill-opacity="0.05"/>
</g>
<defs>
<linearGradient id="paint0_linear_170_29853" x1="1050.5" y1="163" x2="239.5" y2="782.5" gradientUnits="userSpaceOnUse">
<stop stop-color="#29A1CA"/>
<stop offset="1" stop-color="#009EC0"/>
</linearGradient>
<linearGradient id="paint1_linear_170_29853" x1="601" y1="0" x2="1460" y2="0" gradientUnits="userSpaceOnUse">
<stop stop-color="#D6D6D6"/>
<stop offset="0.12" stop-color="white"/>
<stop offset="1" stop-color="white"/>
</linearGradient>
<clipPath id="clip0_170_29853">
<rect width="1440" height="1024" fill="white"/>
</clipPath>
</defs>
</svg>
